<?xml version="1.0" standalone="no"?>
<!DOCTYPE svg PUBLIC "-//W3C//DTD SVG 20010904//EN"
 "http://www.w3.org/TR/2001/REC-SVG-20010904/DTD/svg10.dtd">
<svg version="1.0" xmlns="http://www.w3.org/2000/svg"
 width="260.000000pt" height="260.000000pt" viewBox="0 0 260.000000 260.000000"
 preserveAspectRatio="xMidYMid meet">
<metadata>
Created by potrace 1.11, written by Peter Selinger 2001-2013
</metadata>
<g transform="translate(0.000000,260.000000) scale(0.100000,-0.100000)"
fill="#000000" stroke="none">
<path d="M775 2259 c-286 -165 -523 -303 -527 -307 -4 -4 -8 -299 -8 -656 l-1
-648 493 -285 c271 -156 511 -295 534 -308 l41 -24 534 308 534 308 0 653 0
653 -528 303 c-291 167 -534 304 -540 304 -7 0 -246 -136 -532 -301z m535
-192 l0 -243 -196 -115 c-108 -62 -201 -116 -205 -117 -6 -2 -8 102 -7 243 l3
248 195 112 c107 62 198 114 203 114 4 1 7 -108 7 -242z m-460 -447 c0 -242 2
-440 4 -440 2 0 104 54 227 120 123 66 229 120 236 120 6 0 112 -54 235 -120
l223 -119 3 439 c1 242 4 440 7 440 3 0 102 -52 220 -116 l215 -116 0 -542 0
-541 -154 -77 -155 -77 -286 165 c-158 91 -293 168 -300 170 -7 3 -146 -72
-309 -166 l-297 -171 -159 83 -160 83 2 534 3 534 215 118 c118 65 218 118
223 118 4 1 7 -197 7 -439z"/>
</g>
</svg>
