<svg version="1.1" id="Capa_1" xmlns="http://www.w3.org/2000/svg" x="0" y="0" viewBox="0 0 593.1 198.5" xml:space="preserve"><style>.st0{fill:#fff}.st1{fill:#da5c6c}</style><path class="st0" d="M210.9 69.2c0-5.7-1.1-11.3-3.2-16.7-2.2-5.4-5.3-10.1-9.4-14.1-4.1-4.1-8.8-7.2-13.9-9.4-10.4-4.4-22.6-4.4-33.1 0-5.2 2.2-9.9 5.4-13.8 9.4-4.1 4-7.3 8.7-9.4 13.9-2.1 5.2-3.2 10.8-3.2 16.5 0 5.8 1.1 11.3 3.2 16.5 2.1 5.2 5.3 9.9 9.4 14 4 4 8.6 7.1 13.9 9.3 5.2 2.2 10.8 3.3 16.6 3.3 5.8 0 11.3-1.1 16.5-3.3 5.2-2.2 9.8-5.3 13.9-9.3 4.3-4.3 7.6-9.3 9.8-14.8l1.7-4.3H192l-.9 1.6c-2.3 4.1-5.5 7.4-9.6 9.9s-8.6 3.7-13.6 3.7c-3.6 0-7.1-.7-10.2-2.1-3.2-1.4-6-3.3-8.4-5.7-2.4-2.3-4.3-5.2-5.8-8.3-1-2.2-1.7-4.6-1.9-7.1H211v-3zm-43.1-27c5.8 0 10.8 1.6 15.3 4.9 3.3 2.4 5.8 5.3 7.7 8.7h-46.3c.6-1.1 1.3-2.1 2-3 1.7-2.2 3.6-4.1 5.8-5.6 2.2-1.6 4.6-2.8 7.2-3.7 2.7-.8 5.5-1.3 8.3-1.3zM246.1 29.3V0h-16.5v29.3h-7.4v16.5h7.4v67h16.5v-67h19.2V29.3z"/><path class="st1" d="M387.7 29.3v46.9c0 2.7-.5 5.2-1.6 7.5-1.1 2.4-2.5 4.5-4.3 6.2-1.8 1.8-3.8 3.2-6.2 4.2-4.6 2-10.3 2-15 .1-2.4-1-4.4-2.3-6.2-4-1.8-1.7-3.2-3.7-4.2-5.9s-1.6-4.6-1.7-7.1V29.3H332V77c-.2 2.6-.8 5.1-1.8 7.3s-2.5 4.2-4.2 5.9c-1.8 1.7-3.8 3-6.1 4-4.6 1.9-10.3 1.9-14.9-.1-2.4-1-4.4-2.4-6.2-4.2-1.8-1.8-3.2-3.9-4.3-6.2-1-2.3-1.6-4.8-1.6-7.5V29.3h-16.5v46.9c0 4.8.9 9.4 2.7 13.8 1.8 4.4 4.4 8.3 7.8 11.7 3.4 3.4 7.3 6 11.7 7.8 8.7 3.5 18.8 3.5 27.5 0 4.4-1.8 8.3-4.4 11.7-7.8.8-.8 1.6-1.7 2.3-2.6.7.9 1.5 1.8 2.3 2.6 3.4 3.4 7.3 6 11.7 7.8 4.4 1.8 9 2.6 13.7 2.6 4.8 0 9.4-.9 13.7-2.6 4.4-1.8 8.3-4.4 11.7-7.8 3.4-3.4 6-7.3 7.8-11.7 1.8-4.4 2.7-9 2.7-13.8V29.3h-16zM498.4 69.2c0-5.7-1.1-11.3-3.2-16.7-2.2-5.4-5.3-10.1-9.4-14.1-4.1-4.1-8.8-7.2-13.9-9.4-10.4-4.4-22.6-4.4-33.1 0-5.2 2.2-9.9 5.4-13.8 9.4-4.1 4-7.3 8.7-9.4 13.9-2.1 5.2-3.2 10.8-3.2 16.5 0 5.8 1.1 11.3 3.2 16.5 2.1 5.2 5.3 9.9 9.4 14 4 4 8.6 7.1 13.9 9.3 5.2 2.2 10.8 3.3 16.6 3.3 5.8 0 11.3-1.1 16.5-3.3 5.2-2.2 9.8-5.3 13.9-9.3 4.3-4.3 7.6-9.3 9.8-14.8l1.7-4.3h-17.9l-.9 1.6c-2.3 4.1-5.4 7.4-9.6 9.9-4.1 2.5-8.6 3.7-13.6 3.7-3.6 0-7.1-.7-10.2-2.1-3.2-1.4-6-3.3-8.4-5.7-2.4-2.3-4.3-5.2-5.8-8.3-1-2.2-1.7-4.6-2-7.1h69.4v-3zm-43-27c5.8 0 10.8 1.6 15.3 4.9 3.3 2.4 5.8 5.3 7.7 8.7h-46.3c.6-1 1.3-2.1 2-3 1.7-2.2 3.6-4.1 5.8-5.6 2.2-1.6 4.6-2.8 7.2-3.7 2.6-.8 5.4-1.3 8.3-1.3zM587.9 52.4c-2.2-5.2-5.3-10-9.4-14-4-4-8.6-7.1-13.9-9.3-10.5-4.4-22.7-4.4-33.1 0-3.6 1.5-6.9 3.5-10 5.9V0H505v68.8c0 5.7 1.1 11.3 3.2 16.5 2.1 5.2 5.3 10 9.4 14 4 4 8.6 7.1 13.9 9.3 5.2 2.2 10.8 3.3 16.6 3.3 5.8 0 11.3-1.1 16.6-3.3 5.2-2.2 9.9-5.3 13.9-9.3 4.1-4.1 7.2-8.8 9.4-14 2.1-5.2 3.2-10.8 3.2-16.5-.1-5.6-1.1-11.2-3.3-16.4zm-13.3 16.4c0 3.6-.7 7.1-2.1 10.4-1.4 3.3-3.3 6.1-5.7 8.5-2.4 2.4-5.2 4.3-8.5 5.7-6.4 2.8-14.2 2.8-20.6 0-3.2-1.4-6.1-3.3-8.5-5.7-2.4-2.4-4.3-5.2-5.7-8.5-1.4-3.2-2.1-6.7-2.1-10.4 0-3.6.7-7.1 2.1-10.3 1.4-3.2 3.3-6.1 5.7-8.5 2.4-2.4 5.2-4.3 8.5-5.7 3.2-1.4 6.7-2.1 10.3-2.1 3.6 0 7.1.7 10.3 2.1 3.2 1.4 6.1 3.3 8.5 5.7 2.4 2.4 4.3 5.2 5.7 8.5 1.4 3.2 2.1 6.7 2.1 10.3z"/><path class="st0" d="M58.1 48.3v16.3h38.3v29.7c-16.1 0-31.6 1.3-46.8-.4-13.5-1.5-23.2-10.7-28.3-23.4C11.3 45.6 28 18.6 55 17h57.6V.5c-19.9 0-39-.6-58 .1C24.2 1.8 1.2 27.2 2.2 57.3c1 30.5 24.8 53.9 55.4 54.1 15.5.1 52.1.2 55.4 0V48.3H58.1zM31.7 159c0 4.9-1.4 8.7-4.2 11.3s-6.9 3.9-12.2 3.9H6.9v-30h9.4c4.9 0 8.7 1.3 11.4 3.9s4 6.3 4 10.9zm-6.6.2c0-6.4-2.8-9.7-8.5-9.7h-3.4V169h2.7c6.2 0 9.2-3.3 9.2-9.8zM37.9 174.3v-30h6.4v30h-6.4zM69.5 165.9c0 2.7-1 4.8-2.9 6.4s-4.7 2.3-8.1 2.3c-3.2 0-6-.6-8.5-1.8V167c2 .9 3.7 1.5 5.1 1.9s2.7.6 3.8.6c1.4 0 2.5-.3 3.2-.8s1.1-1.3 1.1-2.4c0-.6-.2-1.1-.5-1.6s-.8-.9-1.4-1.3-1.9-1.1-3.9-2c-1.8-.9-3.2-1.7-4.1-2.5s-1.6-1.7-2.2-2.8-.8-2.3-.8-3.7c0-2.7.9-4.7 2.7-6.3s4.3-2.3 7.5-2.3c1.6 0 3 .2 4.5.6 1.4.4 2.9.9 4.4 1.6l-2.1 4.9c-1.6-.7-2.9-1.1-4-1.4-1-.3-2.1-.4-3.1-.4-1.2 0-2.1.3-2.8.8s-1 1.3-1 2.2c0 .6.1 1 .4 1.5s.7.8 1.2 1.2 1.9 1.1 4 2.1c2.8 1.3 4.7 2.7 5.8 4s1.7 3.1 1.7 5zM92.2 174.3H75v-30h17.3v5.2h-11v6.6h10.2v5.2H81.3v7.7h10.9v5.3zM125.1 174.3H117l-13-22.7h-.2c.3 4 .4 6.9.4 8.6v14.1h-5.7v-30h8l13 22.5h.1c-.2-3.9-.3-6.7-.3-8.3v-14.2h5.7v30zm-16.7-34.6c-.4 0-.8.2-1.2.5s-.7.9-.9 1.7h-3.1c.2-2 .7-3.5 1.7-4.7s2.3-1.7 3.9-1.7c.6 0 1.1.1 1.7.3s1.1.5 1.6.7 1 .5 1.5.7 1 .3 1.5.3c.4 0 .8-.2 1.2-.5s.7-.9.9-1.6h3.1c-.2 2-.7 3.5-1.7 4.7s-2.3 1.7-3.9 1.7c-.6 0-1.1-.1-1.7-.3s-1.1-.5-1.6-.7-1-.5-1.5-.7-1-.4-1.5-.4zM159.9 159.2c0 5-1.2 8.8-3.7 11.4s-6 4-10.6 4-8.1-1.3-10.6-4-3.7-6.5-3.7-11.5 1.2-8.8 3.7-11.4 6-3.9 10.6-3.9 8.1 1.3 10.6 4 3.7 6.5 3.7 11.4zm-21.9 0c0 3.3.6 5.9 1.9 7.6s3.2 2.5 5.7 2.5c5.1 0 7.6-3.4 7.6-10.1 0-6.8-2.5-10.1-7.6-10.1-2.5 0-4.4.9-5.7 2.6s-1.9 4.2-1.9 7.5zM186.3 156.6l6.3-12.3h6.8l-9.9 18.3v11.7h-6.3v-11.5l-9.9-18.5h6.9l6.1 12.3zM239 159c0 4.9-1.4 8.7-4.2 11.3s-6.9 3.9-12.2 3.9h-8.5v-30h9.4c4.9 0 8.7 1.3 11.4 3.9s4.1 6.3 4.1 10.9zm-6.6.2c0-6.4-2.8-9.7-8.5-9.7h-3.4V169h2.7c6.1 0 9.2-3.3 9.2-9.8zM262.5 174.3h-17.3v-30h17.3v5.2h-10.9v6.6h10.2v5.2h-10.2v7.7h10.9v5.3zM286.4 165.9c0 2.7-1 4.8-2.9 6.4s-4.7 2.3-8.1 2.3c-3.2 0-6-.6-8.5-1.8V167c2 .9 3.7 1.5 5.1 1.9s2.7.6 3.8.6c1.4 0 2.5-.3 3.2-.8s1.1-1.3 1.1-2.4c0-.6-.2-1.1-.5-1.6s-.8-.9-1.4-1.3-1.9-1.1-3.9-2c-1.8-.9-3.2-1.7-4.1-2.5s-1.6-1.7-2.2-2.8-.8-2.3-.8-3.7c0-2.7.9-4.7 2.7-6.3s4.3-2.3 7.5-2.3c1.6 0 3 .2 4.5.6s2.9.9 4.4 1.6l-2.1 4.9c-1.6-.7-2.9-1.1-4-1.4s-2.1-.4-3.1-.4c-1.2 0-2.1.3-2.8.8s-1 1.3-1 2.2c0 .6.1 1 .4 1.5s.7.8 1.2 1.2 1.9 1.1 4 2.1c2.8 1.3 4.7 2.7 5.8 4s1.7 3.1 1.7 5zM310.2 174.3l-2.2-7.1h-10.9l-2.2 7.1h-6.8l10.6-30.1h7.8l10.6 30.1h-6.9zm-3.7-12.5c-2-6.5-3.1-10.1-3.4-11s-.4-1.5-.5-2c-.5 1.8-1.7 6.1-3.9 13h7.8zM327.2 162.8v11.5h-6.4v-30h8.7c4.1 0 7.1.7 9 2.2s2.9 3.7 2.9 6.8c0 1.8-.5 3.3-1.5 4.7s-2.3 2.5-4.1 3.2c4.5 6.7 7.5 11.1 8.8 13.1h-7.1l-7.2-11.5h-3.1zm0-5.2h2.1c2 0 3.5-.3 4.5-1s1.4-1.7 1.4-3.2c0-1.4-.5-2.4-1.5-3-1-.6-2.5-.9-4.5-.9h-1.9v8.1zM354.9 162.8v11.5h-6.4v-30h8.7c4.1 0 7.1.7 9 2.2s2.9 3.7 2.9 6.8c0 1.8-.5 3.3-1.5 4.7s-2.3 2.5-4.1 3.2c4.5 6.7 7.5 11.1 8.8 13.1h-7.1l-7.2-11.5h-3.1zm0-5.2h2.1c2 0 3.5-.3 4.5-1s1.4-1.7 1.4-3.2c0-1.4-.5-2.4-1.5-3-1-.6-2.5-.9-4.5-.9H355v8.1zM403.5 159.2c0 5-1.2 8.8-3.7 11.4s-6 4-10.6 4-8.1-1.3-10.6-4-3.7-6.5-3.7-11.5 1.2-8.8 3.7-11.4c2.5-2.6 6-3.9 10.6-3.9s8.1 1.3 10.6 4c2.5 2.6 3.7 6.5 3.7 11.4zm-21.9 0c0 3.3.6 5.9 1.9 7.6s3.2 2.5 5.7 2.5c5.1 0 7.6-3.4 7.6-10.1 0-6.8-2.5-10.1-7.6-10.1-2.5 0-4.4.9-5.7 2.6s-1.9 4.2-1.9 7.5zM409.7 174.3v-30h6.4V169h12.2v5.3h-18.6zM433.4 174.3v-30h6.4V169H452v5.3h-18.6zM484.4 159.2c0 5-1.2 8.8-3.7 11.4s-6 4-10.6 4-8.1-1.3-10.6-4-3.7-6.5-3.7-11.5 1.2-8.8 3.7-11.4c2.5-2.6 6-3.9 10.6-3.9s8.1 1.3 10.6 4c2.5 2.6 3.7 6.5 3.7 11.4zm-21.9 0c0 3.3.6 5.9 1.9 7.6s3.2 2.5 5.7 2.5c5.1 0 7.6-3.4 7.6-10.1 0-6.8-2.5-10.1-7.6-10.1-2.5 0-4.4.9-5.7 2.6s-1.9 4.2-1.9 7.5zM530.7 174.3h-7.2l-4.1-15.8c-.2-.6-.4-1.7-.8-3.5s-.6-2.9-.6-3.5c-.1.7-.3 1.9-.6 3.6s-.6 2.8-.8 3.5l-4 15.7h-7.2l-7.6-30h6.3l3.8 16.4c.7 3 1.2 5.6 1.5 7.9.1-.8.3-2 .6-3.6s.6-2.9.8-3.8l4.4-16.8h6l4.4 16.8c.2.8.4 1.9.7 3.4s.5 2.9.7 4c.1-1.1.4-2.4.7-4s.6-2.9.8-3.9l3.8-16.4h6.3l-7.9 30zM559.4 174.3h-17.3v-30h17.3v5.2h-10.9v6.6h10.2v5.2h-10.2v7.7h10.9v5.3zM565.6 144.3h9.3c4.3 0 7.3.6 9.3 1.8 1.9 1.2 2.9 3.1 2.9 5.8 0 1.8-.4 3.3-1.3 4.4-.8 1.1-2 1.8-3.4 2.1v.2c1.9.4 3.3 1.2 4.1 2.4.8 1.2 1.3 2.7 1.3 4.6 0 2.7-1 4.9-3 6.4s-4.7 2.3-8 2.3h-11.2v-30zm6.4 11.9h3.7c1.7 0 3-.3 3.7-.8.8-.5 1.2-1.4 1.2-2.6 0-1.1-.4-2-1.3-2.5-.8-.5-2.2-.7-4-.7H572v6.6zm0 5v7.8h4.1c1.8 0 3-.3 3.9-1s1.3-1.7 1.3-3.1c0-2.5-1.8-3.7-5.3-3.7h-4z"/></svg>